<?xml version="1.0"?>
<svg xmlns="http://www.w3.org/2000/svg" xmlns:xlink="http://www.w3.org/1999/xlink" version="1.1" id="Capa_1" x="0px" y="0px" viewBox="0 0 512 512" style="enable-background:new 0 0 512 512;" xml:space="preserve" width="512px" height="512px" class="hovered-paths"><g><path style="fill:#EB5E28" d="M496.358,256.63v15.011c0,64.198-24.999,124.562-70.392,169.956C380.562,487.001,320.208,512,256,512  c-1.001,0-2.001-0.01-3.002-0.02c-63.087-0.771-122.271-25.689-166.964-70.382C40.64,396.204,15.642,335.839,15.642,271.642  c0-64.208,24.999-124.562,70.392-169.966c44.693-44.683,103.877-69.612,166.964-70.382c1.001-0.01,2.001-0.02,3.002-0.02  c41.961,0,82.811,10.848,118.948,31.473L430.199,0l39.94,215.28l-217.141-12.299l-1.461-0.08l1.461-1.661l50.918-57.823  c-15.241-5.674-31.513-8.636-47.916-8.636c-1.001,0-2.011,0.01-3.002,0.03c-74.085,1.611-133.849,62.366-133.849,136.832  c0,74.455,59.764,135.21,133.849,136.822c0.991,0.02,2.001,0.03,3.002,0.03c75.466,0,136.852-61.396,136.852-136.852V256.63H496.358  z" data-original="#FF738E" class="hovered-path active-path" data-old_color="#FF738E"/><g>
	<path style="fill:#EB5E28" d="M470.139,215.28l-217.141-12.299l-1.461-0.08l1.461-1.661l50.918-57.823   c-15.241-5.674-31.513-8.636-47.916-8.636c-1.001,0-2.011,0.01-3.002,0.03V31.293c1.001-0.01,2.001-0.02,3.002-0.02   c41.961,0,82.811,10.848,118.948,31.473L430.199,0L470.139,215.28z" data-original="#FF0435" class="" data-old_color="#FF0435"/>
	<path style="fill:#EB5E28" d="M496.358,256.63v15.011c0,64.198-24.999,124.562-70.392,169.956   C380.562,487.001,320.208,512,256,512c-1.001,0-2.001-0.01-3.002-0.02V408.463c0.991,0.02,2.001,0.03,3.002,0.03   c75.466,0,136.852-61.396,136.852-136.852V256.63H496.358z" data-original="#FF0435" class="" data-old_color="#FF0435"/>
</g></g> </svg>
