<svg width="470" height="74" viewBox="0 0 470 74" fill="none" xmlns="http://www.w3.org/2000/svg">
<mask id="path-1-outside-1" maskUnits="userSpaceOnUse" x="0.905487" y="0.735992" width="469" height="73" fill="black">
<rect fill="white" x="0.905487" y="0.735992" width="469" height="73"/>
<path d="M30.1055 30.96C32.7082 31.5147 34.7988 32.816 36.3775 34.864C37.9562 36.8693 38.7455 39.1733 38.7455 41.776C38.7455 45.5307 37.4228 48.5173 34.7775 50.736C32.1748 52.912 28.5268 54 23.8335 54H2.90549V9.07199H23.1295C27.6948 9.07199 31.2575 10.1173 33.8175 12.208C36.4202 14.2987 37.7215 17.136 37.7215 20.72C37.7215 23.3653 37.0175 25.5627 35.6095 27.312C34.2442 29.0613 32.4095 30.2773 30.1055 30.96ZM13.8495 27.248H21.0175C22.8095 27.248 24.1748 26.864 25.1135 26.096C26.0948 25.2853 26.5855 24.112 26.5855 22.576C26.5855 21.04 26.0948 19.8667 25.1135 19.056C24.1748 18.2453 22.8095 17.84 21.0175 17.84H13.8495V27.248ZM21.9135 45.168C23.7482 45.168 25.1562 44.7627 26.1375 43.952C27.1615 43.0987 27.6735 41.8827 27.6735 40.304C27.6735 38.7253 27.1402 37.488 26.0735 36.592C25.0495 35.696 23.6202 35.248 21.7855 35.248H13.8495V45.168H21.9135Z"/>
<path d="M56.037 24.24C57.317 22.2773 58.917 20.7413 60.837 19.632C62.757 18.48 64.8903 17.904 67.237 17.904V29.488H64.229C61.4983 29.488 59.4503 30.0853 58.085 31.28C56.7197 32.432 56.037 34.48 56.037 37.424V54H45.093V18.288H56.037V24.24Z"/>
<path d="M106.132 35.568C106.132 36.592 106.068 37.6587 105.94 38.768H81.172C81.3426 40.9867 82.0466 42.6933 83.284 43.888C84.564 45.04 86.1213 45.616 87.956 45.616C90.6867 45.616 92.5853 44.464 93.652 42.16H105.3C104.703 44.5067 103.615 46.6187 102.036 48.496C100.5 50.3733 98.5587 51.8453 96.212 52.912C93.8653 53.9787 91.2413 54.512 88.34 54.512C84.8413 54.512 81.7267 53.7653 78.996 52.272C76.2653 50.7787 74.132 48.6453 72.596 45.872C71.06 43.0987 70.292 39.856 70.292 36.144C70.292 32.432 71.0386 29.1893 72.532 26.416C74.068 23.6427 76.2013 21.5093 78.932 20.016C81.6627 18.5227 84.7986 17.776 88.34 17.776C91.796 17.776 94.868 18.5013 97.556 19.952C100.244 21.4027 102.335 23.472 103.828 26.16C105.364 28.848 106.132 31.984 106.132 35.568ZM94.932 32.688C94.932 30.8107 94.292 29.3173 93.012 28.208C91.732 27.0987 90.132 26.544 88.212 26.544C86.3773 26.544 84.82 27.0773 83.54 28.144C82.3027 29.2107 81.5347 30.7253 81.236 32.688H94.932Z"/>
<path d="M133.665 17.904C137.847 17.904 141.175 19.2693 143.649 22C146.167 24.688 147.425 28.4 147.425 33.136V54H136.545V34.608C136.545 32.2187 135.927 30.3627 134.689 29.04C133.452 27.7173 131.788 27.056 129.697 27.056C127.607 27.056 125.943 27.7173 124.705 29.04C123.468 30.3627 122.849 32.2187 122.849 34.608V54H111.905V18.288H122.849V23.024C123.959 21.4453 125.452 20.208 127.329 19.312C129.207 18.3733 131.319 17.904 133.665 17.904Z"/>
<path d="M152.854 36.08C152.854 32.4107 153.537 29.1893 154.902 26.416C156.31 23.6427 158.209 21.5093 160.598 20.016C162.988 18.5227 165.654 17.776 168.598 17.776C170.945 17.776 173.078 18.2667 174.998 19.248C176.961 20.2293 178.497 21.552 179.606 23.216V6.64H190.55V54H179.606V48.88C178.582 50.5867 177.11 51.952 175.19 52.976C173.313 54 171.116 54.512 168.598 54.512C165.654 54.512 162.988 53.7653 160.598 52.272C158.209 50.736 156.31 48.5813 154.902 45.808C153.537 42.992 152.854 39.7493 152.854 36.08ZM179.606 36.144C179.606 33.4133 178.838 31.2587 177.302 29.68C175.809 28.1013 173.974 27.312 171.798 27.312C169.622 27.312 167.766 28.1013 166.23 29.68C164.737 31.216 163.99 33.3493 163.99 36.08C163.99 38.8107 164.737 40.9867 166.23 42.608C167.766 44.1867 169.622 44.976 171.798 44.976C173.974 44.976 175.809 44.1867 177.302 42.608C178.838 41.0293 179.606 38.8747 179.606 36.144Z"/>
<path d="M196.292 36.08C196.292 32.4107 196.975 29.1893 198.34 26.416C199.748 23.6427 201.647 21.5093 204.036 20.016C206.425 18.5227 209.092 17.776 212.036 17.776C214.553 17.776 216.751 18.288 218.628 19.312C220.548 20.336 222.02 21.68 223.044 23.344V18.288H233.988V54H223.044V48.944C221.977 50.608 220.484 51.952 218.564 52.976C216.687 54 214.489 54.512 211.972 54.512C209.071 54.512 206.425 53.7653 204.036 52.272C201.647 50.736 199.748 48.5813 198.34 45.808C196.975 42.992 196.292 39.7493 196.292 36.08ZM223.044 36.144C223.044 33.4133 222.276 31.2587 220.74 29.68C219.247 28.1013 217.412 27.312 215.236 27.312C213.06 27.312 211.204 28.1013 209.668 29.68C208.175 31.216 207.428 33.3493 207.428 36.08C207.428 38.8107 208.175 40.9867 209.668 42.608C211.204 44.1867 213.06 44.976 215.236 44.976C217.412 44.976 219.247 44.1867 220.74 42.608C222.276 41.0293 223.044 38.8747 223.044 36.144Z"/>
<path d="M281.516 54L266.412 34.16V54H255.468V9.07199H266.412V28.784L281.388 9.07199H294.252L276.844 31.088L294.892 54H281.516Z"/>
<path d="M305.597 14.576C303.677 14.576 302.098 14.0213 300.861 12.912C299.666 11.76 299.069 10.352 299.069 8.688C299.069 6.98133 299.666 5.57333 300.861 4.46399C302.098 3.31199 303.677 2.73599 305.597 2.73599C307.474 2.73599 309.01 3.31199 310.205 4.46399C311.442 5.57333 312.061 6.98133 312.061 8.688C312.061 10.352 311.442 11.76 310.205 12.912C309.01 14.0213 307.474 14.576 305.597 14.576ZM311.037 18.288V54H300.093V18.288H311.037Z"/>
<path d="M329.912 23.344C330.979 21.68 332.451 20.336 334.328 19.312C336.205 18.288 338.403 17.776 340.92 17.776C343.864 17.776 346.531 18.5227 348.92 20.016C351.309 21.5093 353.187 23.6427 354.552 26.416C355.96 29.1893 356.664 32.4107 356.664 36.08C356.664 39.7493 355.96 42.992 354.552 45.808C353.187 48.5813 351.309 50.736 348.92 52.272C346.531 53.7653 343.864 54.512 340.92 54.512C338.445 54.512 336.248 54 334.328 52.976C332.451 51.952 330.979 50.6293 329.912 49.008V71.024H318.968V18.288H329.912V23.344ZM345.528 36.08C345.528 33.3493 344.76 31.216 343.224 29.68C341.731 28.1013 339.875 27.312 337.656 27.312C335.48 27.312 333.624 28.1013 332.088 29.68C330.595 31.2587 329.848 33.4133 329.848 36.144C329.848 38.8747 330.595 41.0293 332.088 42.608C333.624 44.1867 335.48 44.976 337.656 44.976C339.832 44.976 341.688 44.1867 343.224 42.608C344.76 40.9867 345.528 38.8107 345.528 36.08Z"/>
<path d="M382.31 44.72V54H376.742C372.774 54 369.68 53.04 367.461 51.12C365.243 49.1573 364.134 45.9787 364.134 41.584V27.376H359.781V18.288H364.134V9.584H375.078V18.288H382.246V27.376H375.078V41.712C375.078 42.7787 375.333 43.5467 375.845 44.016C376.357 44.4853 377.211 44.72 378.405 44.72H382.31Z"/>
<path d="M393.909 14.576C391.989 14.576 390.411 14.0213 389.173 12.912C387.979 11.76 387.382 10.352 387.382 8.688C387.382 6.98133 387.979 5.57333 389.173 4.46399C390.411 3.31199 391.989 2.73599 393.909 2.73599C395.787 2.73599 397.323 3.31199 398.517 4.46399C399.755 5.57333 400.374 6.98133 400.374 8.688C400.374 10.352 399.755 11.76 398.517 12.912C397.323 14.0213 395.787 14.576 393.909 14.576ZM399.349 18.288V54H388.405V18.288H399.349Z"/>
<path d="M452.849 17.904C457.286 17.904 460.806 19.248 463.409 21.936C466.054 24.624 467.376 28.3573 467.376 33.136V54H456.496V34.608C456.496 32.304 455.878 30.5333 454.641 29.296C453.446 28.016 451.782 27.376 449.648 27.376C447.515 27.376 445.83 28.016 444.592 29.296C443.398 30.5333 442.801 32.304 442.801 34.608V54H431.921V34.608C431.921 32.304 431.302 30.5333 430.065 29.296C428.87 28.016 427.206 27.376 425.073 27.376C422.939 27.376 421.254 28.016 420.017 29.296C418.822 30.5333 418.224 32.304 418.224 34.608V54H407.28V18.288H418.224V22.768C419.334 21.2747 420.785 20.1013 422.577 19.248C424.369 18.352 426.395 17.904 428.656 17.904C431.344 17.904 433.734 18.48 435.824 19.632C437.958 20.784 439.622 22.4267 440.816 24.56C442.054 22.5973 443.739 20.9973 445.872 19.76C448.006 18.5227 450.331 17.904 452.849 17.904Z"/>
</mask>
<path d="M30.1055 30.96C32.7082 31.5147 34.7988 32.816 36.3775 34.864C37.9562 36.8693 38.7455 39.1733 38.7455 41.776C38.7455 45.5307 37.4228 48.5173 34.7775 50.736C32.1748 52.912 28.5268 54 23.8335 54H2.90549V9.07199H23.1295C27.6948 9.07199 31.2575 10.1173 33.8175 12.208C36.4202 14.2987 37.7215 17.136 37.7215 20.72C37.7215 23.3653 37.0175 25.5627 35.6095 27.312C34.2442 29.0613 32.4095 30.2773 30.1055 30.96ZM13.8495 27.248H21.0175C22.8095 27.248 24.1748 26.864 25.1135 26.096C26.0948 25.2853 26.5855 24.112 26.5855 22.576C26.5855 21.04 26.0948 19.8667 25.1135 19.056C24.1748 18.2453 22.8095 17.84 21.0175 17.84H13.8495V27.248ZM21.9135 45.168C23.7482 45.168 25.1562 44.7627 26.1375 43.952C27.1615 43.0987 27.6735 41.8827 27.6735 40.304C27.6735 38.7253 27.1402 37.488 26.0735 36.592C25.0495 35.696 23.6202 35.248 21.7855 35.248H13.8495V45.168H21.9135Z" stroke="#EB5E28" stroke-width="4" mask="url(#path-1-outside-1)"/>
<path d="M56.037 24.24C57.317 22.2773 58.917 20.7413 60.837 19.632C62.757 18.48 64.8903 17.904 67.237 17.904V29.488H64.229C61.4983 29.488 59.4503 30.0853 58.085 31.28C56.7197 32.432 56.037 34.48 56.037 37.424V54H45.093V18.288H56.037V24.24Z" stroke="#EB5E28" stroke-width="4" mask="url(#path-1-outside-1)"/>
<path d="M106.132 35.568C106.132 36.592 106.068 37.6587 105.94 38.768H81.172C81.3426 40.9867 82.0466 42.6933 83.284 43.888C84.564 45.04 86.1213 45.616 87.956 45.616C90.6867 45.616 92.5853 44.464 93.652 42.16H105.3C104.703 44.5067 103.615 46.6187 102.036 48.496C100.5 50.3733 98.5587 51.8453 96.212 52.912C93.8653 53.9787 91.2413 54.512 88.34 54.512C84.8413 54.512 81.7267 53.7653 78.996 52.272C76.2653 50.7787 74.132 48.6453 72.596 45.872C71.06 43.0987 70.292 39.856 70.292 36.144C70.292 32.432 71.0386 29.1893 72.532 26.416C74.068 23.6427 76.2013 21.5093 78.932 20.016C81.6627 18.5227 84.7986 17.776 88.34 17.776C91.796 17.776 94.868 18.5013 97.556 19.952C100.244 21.4027 102.335 23.472 103.828 26.16C105.364 28.848 106.132 31.984 106.132 35.568ZM94.932 32.688C94.932 30.8107 94.292 29.3173 93.012 28.208C91.732 27.0987 90.132 26.544 88.212 26.544C86.3773 26.544 84.82 27.0773 83.54 28.144C82.3027 29.2107 81.5347 30.7253 81.236 32.688H94.932Z" stroke="#EB5E28" stroke-width="4" mask="url(#path-1-outside-1)"/>
<path d="M133.665 17.904C137.847 17.904 141.175 19.2693 143.649 22C146.167 24.688 147.425 28.4 147.425 33.136V54H136.545V34.608C136.545 32.2187 135.927 30.3627 134.689 29.04C133.452 27.7173 131.788 27.056 129.697 27.056C127.607 27.056 125.943 27.7173 124.705 29.04C123.468 30.3627 122.849 32.2187 122.849 34.608V54H111.905V18.288H122.849V23.024C123.959 21.4453 125.452 20.208 127.329 19.312C129.207 18.3733 131.319 17.904 133.665 17.904Z" stroke="#EB5E28" stroke-width="4" mask="url(#path-1-outside-1)"/>
<path d="M152.854 36.08C152.854 32.4107 153.537 29.1893 154.902 26.416C156.31 23.6427 158.209 21.5093 160.598 20.016C162.988 18.5227 165.654 17.776 168.598 17.776C170.945 17.776 173.078 18.2667 174.998 19.248C176.961 20.2293 178.497 21.552 179.606 23.216V6.64H190.55V54H179.606V48.88C178.582 50.5867 177.11 51.952 175.19 52.976C173.313 54 171.116 54.512 168.598 54.512C165.654 54.512 162.988 53.7653 160.598 52.272C158.209 50.736 156.31 48.5813 154.902 45.808C153.537 42.992 152.854 39.7493 152.854 36.08ZM179.606 36.144C179.606 33.4133 178.838 31.2587 177.302 29.68C175.809 28.1013 173.974 27.312 171.798 27.312C169.622 27.312 167.766 28.1013 166.23 29.68C164.737 31.216 163.99 33.3493 163.99 36.08C163.99 38.8107 164.737 40.9867 166.23 42.608C167.766 44.1867 169.622 44.976 171.798 44.976C173.974 44.976 175.809 44.1867 177.302 42.608C178.838 41.0293 179.606 38.8747 179.606 36.144Z" stroke="#EB5E28" stroke-width="4" mask="url(#path-1-outside-1)"/>
<path d="M196.292 36.08C196.292 32.4107 196.975 29.1893 198.34 26.416C199.748 23.6427 201.647 21.5093 204.036 20.016C206.425 18.5227 209.092 17.776 212.036 17.776C214.553 17.776 216.751 18.288 218.628 19.312C220.548 20.336 222.02 21.68 223.044 23.344V18.288H233.988V54H223.044V48.944C221.977 50.608 220.484 51.952 218.564 52.976C216.687 54 214.489 54.512 211.972 54.512C209.071 54.512 206.425 53.7653 204.036 52.272C201.647 50.736 199.748 48.5813 198.34 45.808C196.975 42.992 196.292 39.7493 196.292 36.08ZM223.044 36.144C223.044 33.4133 222.276 31.2587 220.74 29.68C219.247 28.1013 217.412 27.312 215.236 27.312C213.06 27.312 211.204 28.1013 209.668 29.68C208.175 31.216 207.428 33.3493 207.428 36.08C207.428 38.8107 208.175 40.9867 209.668 42.608C211.204 44.1867 213.06 44.976 215.236 44.976C217.412 44.976 219.247 44.1867 220.74 42.608C222.276 41.0293 223.044 38.8747 223.044 36.144Z" stroke="#EB5E28" stroke-width="4" mask="url(#path-1-outside-1)"/>
<path d="M281.516 54L266.412 34.16V54H255.468V9.07199H266.412V28.784L281.388 9.07199H294.252L276.844 31.088L294.892 54H281.516Z" stroke="#EB5E28" stroke-width="4" mask="url(#path-1-outside-1)"/>
<path d="M305.597 14.576C303.677 14.576 302.098 14.0213 300.861 12.912C299.666 11.76 299.069 10.352 299.069 8.688C299.069 6.98133 299.666 5.57333 300.861 4.46399C302.098 3.31199 303.677 2.73599 305.597 2.73599C307.474 2.73599 309.01 3.31199 310.205 4.46399C311.442 5.57333 312.061 6.98133 312.061 8.688C312.061 10.352 311.442 11.76 310.205 12.912C309.01 14.0213 307.474 14.576 305.597 14.576ZM311.037 18.288V54H300.093V18.288H311.037Z" stroke="#EB5E28" stroke-width="4" mask="url(#path-1-outside-1)"/>
<path d="M329.912 23.344C330.979 21.68 332.451 20.336 334.328 19.312C336.205 18.288 338.403 17.776 340.92 17.776C343.864 17.776 346.531 18.5227 348.92 20.016C351.309 21.5093 353.187 23.6427 354.552 26.416C355.96 29.1893 356.664 32.4107 356.664 36.08C356.664 39.7493 355.96 42.992 354.552 45.808C353.187 48.5813 351.309 50.736 348.92 52.272C346.531 53.7653 343.864 54.512 340.92 54.512C338.445 54.512 336.248 54 334.328 52.976C332.451 51.952 330.979 50.6293 329.912 49.008V71.024H318.968V18.288H329.912V23.344ZM345.528 36.08C345.528 33.3493 344.76 31.216 343.224 29.68C341.731 28.1013 339.875 27.312 337.656 27.312C335.48 27.312 333.624 28.1013 332.088 29.68C330.595 31.2587 329.848 33.4133 329.848 36.144C329.848 38.8747 330.595 41.0293 332.088 42.608C333.624 44.1867 335.48 44.976 337.656 44.976C339.832 44.976 341.688 44.1867 343.224 42.608C344.76 40.9867 345.528 38.8107 345.528 36.08Z" stroke="#EB5E28" stroke-width="4" mask="url(#path-1-outside-1)"/>
<path d="M382.31 44.72V54H376.742C372.774 54 369.68 53.04 367.461 51.12C365.243 49.1573 364.134 45.9787 364.134 41.584V27.376H359.781V18.288H364.134V9.584H375.078V18.288H382.246V27.376H375.078V41.712C375.078 42.7787 375.333 43.5467 375.845 44.016C376.357 44.4853 377.211 44.72 378.405 44.72H382.31Z" stroke="#EB5E28" stroke-width="4" mask="url(#path-1-outside-1)"/>
<path d="M393.909 14.576C391.989 14.576 390.411 14.0213 389.173 12.912C387.979 11.76 387.382 10.352 387.382 8.688C387.382 6.98133 387.979 5.57333 389.173 4.46399C390.411 3.31199 391.989 2.73599 393.909 2.73599C395.787 2.73599 397.323 3.31199 398.517 4.46399C399.755 5.57333 400.374 6.98133 400.374 8.688C400.374 10.352 399.755 11.76 398.517 12.912C397.323 14.0213 395.787 14.576 393.909 14.576ZM399.349 18.288V54H388.405V18.288H399.349Z" stroke="#EB5E28" stroke-width="4" mask="url(#path-1-outside-1)"/>
<path d="M452.849 17.904C457.286 17.904 460.806 19.248 463.409 21.936C466.054 24.624 467.376 28.3573 467.376 33.136V54H456.496V34.608C456.496 32.304 455.878 30.5333 454.641 29.296C453.446 28.016 451.782 27.376 449.648 27.376C447.515 27.376 445.83 28.016 444.592 29.296C443.398 30.5333 442.801 32.304 442.801 34.608V54H431.921V34.608C431.921 32.304 431.302 30.5333 430.065 29.296C428.87 28.016 427.206 27.376 425.073 27.376C422.939 27.376 421.254 28.016 420.017 29.296C418.822 30.5333 418.224 32.304 418.224 34.608V54H407.28V18.288H418.224V22.768C419.334 21.2747 420.785 20.1013 422.577 19.248C424.369 18.352 426.395 17.904 428.656 17.904C431.344 17.904 433.734 18.48 435.824 19.632C437.958 20.784 439.622 22.4267 440.816 24.56C442.054 22.5973 443.739 20.9973 445.872 19.76C448.006 18.5227 450.331 17.904 452.849 17.904Z" stroke="#EB5E28" stroke-width="4" mask="url(#path-1-outside-1)"/>
</svg>
