<svg width="528" height="144" viewBox="0 0 528 144" fill="none" xmlns="http://www.w3.org/2000/svg">
<rect width="528" height="144" fill="#FFFCF2"/>
<mask id="path-2-outside-1" maskUnits="userSpaceOnUse" x="44" y="44" width="441" height="56" fill="black">
<rect fill="white" x="44" y="44" width="441" height="56"/>
<path d="M80.24 66.8C80.24 69.4027 79.6427 71.792 78.448 73.968C77.2533 76.1013 75.4187 77.8293 72.944 79.152C70.4693 80.4747 67.3973 81.136 63.728 81.136H56.944V97.264H46V52.336H63.728C67.312 52.336 70.3413 52.9547 72.816 54.192C75.2907 55.4293 77.1467 57.136 78.384 59.312C79.6213 61.488 80.24 63.984 80.24 66.8ZM62.896 72.432C64.9867 72.432 66.544 71.9413 67.568 70.96C68.592 69.9787 69.104 68.592 69.104 66.8C69.104 65.008 68.592 63.6213 67.568 62.64C66.544 61.6587 64.9867 61.168 62.896 61.168H56.944V72.432H62.896Z"/>
<path d="M96.8815 67.504C98.1615 65.5413 99.7615 64.0053 101.682 62.896C103.602 61.744 105.735 61.168 108.082 61.168V72.752H105.074C102.343 72.752 100.295 73.3493 98.9295 74.544C97.5642 75.696 96.8815 77.744 96.8815 80.688V97.264H85.9375V61.552H96.8815V67.504Z"/>
<path d="M129.568 97.776C126.07 97.776 122.912 97.0293 120.096 95.536C117.323 94.0427 115.126 91.9093 113.505 89.136C111.926 86.3627 111.137 83.12 111.137 79.408C111.137 75.7387 111.947 72.5173 113.568 69.744C115.19 66.928 117.409 64.7733 120.225 63.28C123.041 61.7867 126.198 61.04 129.697 61.04C133.195 61.04 136.353 61.7867 139.169 63.28C141.985 64.7733 144.203 66.928 145.825 69.744C147.446 72.5173 148.257 75.7387 148.257 79.408C148.257 83.0773 147.424 86.32 145.76 89.136C144.139 91.9093 141.899 94.0427 139.04 95.536C136.224 97.0293 133.067 97.776 129.568 97.776ZM129.568 88.304C131.659 88.304 133.43 87.536 134.88 86C136.374 84.464 137.12 82.2667 137.12 79.408C137.12 76.5493 136.395 74.352 134.945 72.816C133.537 71.28 131.787 70.512 129.697 70.512C127.563 70.512 125.793 71.28 124.385 72.816C122.977 74.3093 122.273 76.5067 122.273 79.408C122.273 82.2667 122.955 84.464 124.32 86C125.728 87.536 127.478 88.304 129.568 88.304Z"/>
<path d="M151.887 79.344C151.887 75.6747 152.569 72.4533 153.934 69.68C155.342 66.9067 157.241 64.7733 159.63 63.28C162.02 61.7867 164.686 61.04 167.63 61.04C169.977 61.04 172.111 61.5307 174.031 62.512C175.993 63.4933 177.529 64.816 178.639 66.48V49.904H189.583V97.264H178.639V92.144C177.615 93.8507 176.143 95.216 174.223 96.24C172.345 97.264 170.148 97.776 167.63 97.776C164.686 97.776 162.02 97.0293 159.63 95.536C157.241 94 155.342 91.8453 153.934 89.072C152.569 86.256 151.887 83.0133 151.887 79.344ZM178.639 79.408C178.639 76.6773 177.871 74.5227 176.335 72.944C174.841 71.3653 173.006 70.576 170.83 70.576C168.654 70.576 166.798 71.3653 165.262 72.944C163.769 74.48 163.022 76.6133 163.022 79.344C163.022 82.0747 163.769 84.2507 165.262 85.872C166.798 87.4507 168.654 88.24 170.83 88.24C173.006 88.24 174.841 87.4507 176.335 85.872C177.871 84.2933 178.639 82.1387 178.639 79.408Z"/>
<path d="M232.764 61.552V97.264H221.82V92.4C220.711 93.9787 219.196 95.2587 217.276 96.24C215.399 97.1787 213.308 97.648 211.004 97.648C208.273 97.648 205.863 97.0507 203.772 95.856C201.681 94.6187 200.06 92.848 198.908 90.544C197.756 88.24 197.18 85.5307 197.18 82.416V61.552H208.06V80.944C208.06 83.3333 208.679 85.1893 209.916 86.512C211.153 87.8347 212.817 88.496 214.908 88.496C217.041 88.496 218.727 87.8347 219.964 86.512C221.201 85.1893 221.82 83.3333 221.82 80.944V61.552H232.764Z"/>
<path d="M238.449 79.408C238.449 75.696 239.196 72.4533 240.689 69.68C242.225 66.9067 244.337 64.7733 247.025 63.28C249.756 61.7867 252.87 61.04 256.369 61.04C260.849 61.04 264.582 62.2133 267.569 64.56C270.598 66.9067 272.582 70.2133 273.521 74.48H261.873C260.892 71.7493 258.993 70.384 256.177 70.384C254.172 70.384 252.572 71.1733 251.377 72.752C250.182 74.288 249.585 76.5067 249.585 79.408C249.585 82.3093 250.182 84.5493 251.377 86.128C252.572 87.664 254.172 88.432 256.177 88.432C258.993 88.432 260.892 87.0667 261.873 84.336H273.521C272.582 88.5173 270.598 91.8027 267.569 94.192C264.54 96.5813 260.806 97.776 256.369 97.776C252.87 97.776 249.756 97.0293 247.025 95.536C244.337 94.0427 242.225 91.9093 240.689 89.136C239.196 86.3627 238.449 83.12 238.449 79.408Z"/>
<path d="M299.279 87.984V97.264H293.711C289.743 97.264 286.65 96.304 284.431 94.384C282.212 92.4213 281.103 89.2427 281.103 84.848V70.64H276.751V61.552H281.103V52.848H292.047V61.552H299.215V70.64H292.047V84.976C292.047 86.0427 292.303 86.8107 292.815 87.28C293.327 87.7493 294.18 87.984 295.375 87.984H299.279Z"/>
<path d="M310.879 57.84C308.959 57.84 307.38 57.2853 306.143 56.176C304.948 55.024 304.351 53.616 304.351 51.952C304.351 50.2453 304.948 48.8373 306.143 47.728C307.38 46.576 308.959 46 310.879 46C312.756 46 314.292 46.576 315.487 47.728C316.724 48.8373 317.343 50.2453 317.343 51.952C317.343 53.616 316.724 55.024 315.487 56.176C314.292 57.2853 312.756 57.84 310.879 57.84ZM316.319 61.552V97.264H305.375V61.552H316.319Z"/>
<path d="M340.314 87.024L348.058 61.552H359.706L347.034 97.264H333.53L320.858 61.552H332.57L340.314 87.024Z"/>
<path d="M369.816 57.84C367.896 57.84 366.318 57.2853 365.081 56.176C363.886 55.024 363.289 53.616 363.289 51.952C363.289 50.2453 363.886 48.8373 365.081 47.728C366.318 46.576 367.896 46 369.816 46C371.694 46 373.23 46.576 374.424 47.728C375.662 48.8373 376.281 50.2453 376.281 51.952C376.281 53.616 375.662 55.024 374.424 56.176C373.23 57.2853 371.694 57.84 369.816 57.84ZM375.257 61.552V97.264H364.312V61.552H375.257Z"/>
<path d="M403.092 87.984V97.264H397.524C393.556 97.264 390.462 96.304 388.243 94.384C386.025 92.4213 384.916 89.2427 384.916 84.848V70.64H380.564V61.552H384.916V52.848H395.86V61.552H403.028V70.64H395.86V84.976C395.86 86.0427 396.116 86.8107 396.628 87.28C397.14 87.7493 397.993 87.984 399.188 87.984H403.092Z"/>
<path d="M442.852 78.832C442.852 79.856 442.788 80.9227 442.66 82.032H417.892C418.062 84.2507 418.766 85.9573 420.004 87.152C421.284 88.304 422.841 88.88 424.676 88.88C427.406 88.88 429.305 87.728 430.372 85.424H442.02C441.422 87.7707 440.334 89.8827 438.756 91.76C437.22 93.6373 435.278 95.1093 432.932 96.176C430.585 97.2427 427.961 97.776 425.06 97.776C421.561 97.776 418.446 97.0293 415.716 95.536C412.985 94.0427 410.852 91.9093 409.316 89.136C407.78 86.3627 407.012 83.12 407.012 79.408C407.012 75.696 407.758 72.4533 409.252 69.68C410.788 66.9067 412.921 64.7733 415.652 63.28C418.382 61.7867 421.518 61.04 425.06 61.04C428.516 61.04 431.588 61.7653 434.276 63.216C436.964 64.6667 439.054 66.736 440.548 69.424C442.084 72.112 442.852 75.248 442.852 78.832ZM431.652 75.952C431.652 74.0747 431.012 72.5813 429.732 71.472C428.452 70.3627 426.852 69.808 424.932 69.808C423.097 69.808 421.54 70.3413 420.26 71.408C419.022 72.4747 418.254 73.9893 417.956 75.952H431.652Z"/>
<path d="M482.289 78.832C482.289 79.856 482.225 80.9227 482.097 82.032H457.329C457.5 84.2507 458.204 85.9573 459.441 87.152C460.721 88.304 462.278 88.88 464.113 88.88C466.844 88.88 468.742 87.728 469.809 85.424H481.457C480.86 87.7707 479.772 89.8827 478.193 91.76C476.657 93.6373 474.716 95.1093 472.369 96.176C470.022 97.2427 467.398 97.776 464.497 97.776C460.998 97.776 457.884 97.0293 455.153 95.536C452.422 94.0427 450.289 91.9093 448.753 89.136C447.217 86.3627 446.449 83.12 446.449 79.408C446.449 75.696 447.196 72.4533 448.689 69.68C450.225 66.9067 452.358 64.7733 455.089 63.28C457.82 61.7867 460.956 61.04 464.497 61.04C467.953 61.04 471.025 61.7653 473.713 63.216C476.401 64.6667 478.492 66.736 479.985 69.424C481.521 72.112 482.289 75.248 482.289 78.832ZM471.089 75.952C471.089 74.0747 470.449 72.5813 469.169 71.472C467.889 70.3627 466.289 69.808 464.369 69.808C462.534 69.808 460.977 70.3413 459.697 71.408C458.46 72.4747 457.692 73.9893 457.393 75.952H471.089Z"/>
</mask>
<path d="M80.24 66.8C80.24 69.4027 79.6427 71.792 78.448 73.968C77.2533 76.1013 75.4187 77.8293 72.944 79.152C70.4693 80.4747 67.3973 81.136 63.728 81.136H56.944V97.264H46V52.336H63.728C67.312 52.336 70.3413 52.9547 72.816 54.192C75.2907 55.4293 77.1467 57.136 78.384 59.312C79.6213 61.488 80.24 63.984 80.24 66.8ZM62.896 72.432C64.9867 72.432 66.544 71.9413 67.568 70.96C68.592 69.9787 69.104 68.592 69.104 66.8C69.104 65.008 68.592 63.6213 67.568 62.64C66.544 61.6587 64.9867 61.168 62.896 61.168H56.944V72.432H62.896Z" stroke="#EB5E28" stroke-width="4" mask="url(#path-2-outside-1)"/>
<path d="M96.8815 67.504C98.1615 65.5413 99.7615 64.0053 101.682 62.896C103.602 61.744 105.735 61.168 108.082 61.168V72.752H105.074C102.343 72.752 100.295 73.3493 98.9295 74.544C97.5642 75.696 96.8815 77.744 96.8815 80.688V97.264H85.9375V61.552H96.8815V67.504Z" stroke="#EB5E28" stroke-width="4" mask="url(#path-2-outside-1)"/>
<path d="M129.568 97.776C126.07 97.776 122.912 97.0293 120.096 95.536C117.323 94.0427 115.126 91.9093 113.505 89.136C111.926 86.3627 111.137 83.12 111.137 79.408C111.137 75.7387 111.947 72.5173 113.568 69.744C115.19 66.928 117.409 64.7733 120.225 63.28C123.041 61.7867 126.198 61.04 129.697 61.04C133.195 61.04 136.353 61.7867 139.169 63.28C141.985 64.7733 144.203 66.928 145.825 69.744C147.446 72.5173 148.257 75.7387 148.257 79.408C148.257 83.0773 147.424 86.32 145.76 89.136C144.139 91.9093 141.899 94.0427 139.04 95.536C136.224 97.0293 133.067 97.776 129.568 97.776ZM129.568 88.304C131.659 88.304 133.43 87.536 134.88 86C136.374 84.464 137.12 82.2667 137.12 79.408C137.12 76.5493 136.395 74.352 134.945 72.816C133.537 71.28 131.787 70.512 129.697 70.512C127.563 70.512 125.793 71.28 124.385 72.816C122.977 74.3093 122.273 76.5067 122.273 79.408C122.273 82.2667 122.955 84.464 124.32 86C125.728 87.536 127.478 88.304 129.568 88.304Z" stroke="#EB5E28" stroke-width="4" mask="url(#path-2-outside-1)"/>
<path d="M151.887 79.344C151.887 75.6747 152.569 72.4533 153.934 69.68C155.342 66.9067 157.241 64.7733 159.63 63.28C162.02 61.7867 164.686 61.04 167.63 61.04C169.977 61.04 172.111 61.5307 174.031 62.512C175.993 63.4933 177.529 64.816 178.639 66.48V49.904H189.583V97.264H178.639V92.144C177.615 93.8507 176.143 95.216 174.223 96.24C172.345 97.264 170.148 97.776 167.63 97.776C164.686 97.776 162.02 97.0293 159.63 95.536C157.241 94 155.342 91.8453 153.934 89.072C152.569 86.256 151.887 83.0133 151.887 79.344ZM178.639 79.408C178.639 76.6773 177.871 74.5227 176.335 72.944C174.841 71.3653 173.006 70.576 170.83 70.576C168.654 70.576 166.798 71.3653 165.262 72.944C163.769 74.48 163.022 76.6133 163.022 79.344C163.022 82.0747 163.769 84.2507 165.262 85.872C166.798 87.4507 168.654 88.24 170.83 88.24C173.006 88.24 174.841 87.4507 176.335 85.872C177.871 84.2933 178.639 82.1387 178.639 79.408Z" stroke="#EB5E28" stroke-width="4" mask="url(#path-2-outside-1)"/>
<path d="M232.764 61.552V97.264H221.82V92.4C220.711 93.9787 219.196 95.2587 217.276 96.24C215.399 97.1787 213.308 97.648 211.004 97.648C208.273 97.648 205.863 97.0507 203.772 95.856C201.681 94.6187 200.06 92.848 198.908 90.544C197.756 88.24 197.18 85.5307 197.18 82.416V61.552H208.06V80.944C208.06 83.3333 208.679 85.1893 209.916 86.512C211.153 87.8347 212.817 88.496 214.908 88.496C217.041 88.496 218.727 87.8347 219.964 86.512C221.201 85.1893 221.82 83.3333 221.82 80.944V61.552H232.764Z" stroke="#EB5E28" stroke-width="4" mask="url(#path-2-outside-1)"/>
<path d="M238.449 79.408C238.449 75.696 239.196 72.4533 240.689 69.68C242.225 66.9067 244.337 64.7733 247.025 63.28C249.756 61.7867 252.87 61.04 256.369 61.04C260.849 61.04 264.582 62.2133 267.569 64.56C270.598 66.9067 272.582 70.2133 273.521 74.48H261.873C260.892 71.7493 258.993 70.384 256.177 70.384C254.172 70.384 252.572 71.1733 251.377 72.752C250.182 74.288 249.585 76.5067 249.585 79.408C249.585 82.3093 250.182 84.5493 251.377 86.128C252.572 87.664 254.172 88.432 256.177 88.432C258.993 88.432 260.892 87.0667 261.873 84.336H273.521C272.582 88.5173 270.598 91.8027 267.569 94.192C264.54 96.5813 260.806 97.776 256.369 97.776C252.87 97.776 249.756 97.0293 247.025 95.536C244.337 94.0427 242.225 91.9093 240.689 89.136C239.196 86.3627 238.449 83.12 238.449 79.408Z" stroke="#EB5E28" stroke-width="4" mask="url(#path-2-outside-1)"/>
<path d="M299.279 87.984V97.264H293.711C289.743 97.264 286.65 96.304 284.431 94.384C282.212 92.4213 281.103 89.2427 281.103 84.848V70.64H276.751V61.552H281.103V52.848H292.047V61.552H299.215V70.64H292.047V84.976C292.047 86.0427 292.303 86.8107 292.815 87.28C293.327 87.7493 294.18 87.984 295.375 87.984H299.279Z" stroke="#EB5E28" stroke-width="4" mask="url(#path-2-outside-1)"/>
<path d="M310.879 57.84C308.959 57.84 307.38 57.2853 306.143 56.176C304.948 55.024 304.351 53.616 304.351 51.952C304.351 50.2453 304.948 48.8373 306.143 47.728C307.38 46.576 308.959 46 310.879 46C312.756 46 314.292 46.576 315.487 47.728C316.724 48.8373 317.343 50.2453 317.343 51.952C317.343 53.616 316.724 55.024 315.487 56.176C314.292 57.2853 312.756 57.84 310.879 57.84ZM316.319 61.552V97.264H305.375V61.552H316.319Z" stroke="#EB5E28" stroke-width="4" mask="url(#path-2-outside-1)"/>
<path d="M340.314 87.024L348.058 61.552H359.706L347.034 97.264H333.53L320.858 61.552H332.57L340.314 87.024Z" stroke="#EB5E28" stroke-width="4" mask="url(#path-2-outside-1)"/>
<path d="M369.816 57.84C367.896 57.84 366.318 57.2853 365.081 56.176C363.886 55.024 363.289 53.616 363.289 51.952C363.289 50.2453 363.886 48.8373 365.081 47.728C366.318 46.576 367.896 46 369.816 46C371.694 46 373.23 46.576 374.424 47.728C375.662 48.8373 376.281 50.2453 376.281 51.952C376.281 53.616 375.662 55.024 374.424 56.176C373.23 57.2853 371.694 57.84 369.816 57.84ZM375.257 61.552V97.264H364.312V61.552H375.257Z" stroke="#EB5E28" stroke-width="4" mask="url(#path-2-outside-1)"/>
<path d="M403.092 87.984V97.264H397.524C393.556 97.264 390.462 96.304 388.243 94.384C386.025 92.4213 384.916 89.2427 384.916 84.848V70.64H380.564V61.552H384.916V52.848H395.86V61.552H403.028V70.64H395.86V84.976C395.86 86.0427 396.116 86.8107 396.628 87.28C397.14 87.7493 397.993 87.984 399.188 87.984H403.092Z" stroke="#EB5E28" stroke-width="4" mask="url(#path-2-outside-1)"/>
<path d="M442.852 78.832C442.852 79.856 442.788 80.9227 442.66 82.032H417.892C418.062 84.2507 418.766 85.9573 420.004 87.152C421.284 88.304 422.841 88.88 424.676 88.88C427.406 88.88 429.305 87.728 430.372 85.424H442.02C441.422 87.7707 440.334 89.8827 438.756 91.76C437.22 93.6373 435.278 95.1093 432.932 96.176C430.585 97.2427 427.961 97.776 425.06 97.776C421.561 97.776 418.446 97.0293 415.716 95.536C412.985 94.0427 410.852 91.9093 409.316 89.136C407.78 86.3627 407.012 83.12 407.012 79.408C407.012 75.696 407.758 72.4533 409.252 69.68C410.788 66.9067 412.921 64.7733 415.652 63.28C418.382 61.7867 421.518 61.04 425.06 61.04C428.516 61.04 431.588 61.7653 434.276 63.216C436.964 64.6667 439.054 66.736 440.548 69.424C442.084 72.112 442.852 75.248 442.852 78.832ZM431.652 75.952C431.652 74.0747 431.012 72.5813 429.732 71.472C428.452 70.3627 426.852 69.808 424.932 69.808C423.097 69.808 421.54 70.3413 420.26 71.408C419.022 72.4747 418.254 73.9893 417.956 75.952H431.652Z" stroke="#EB5E28" stroke-width="4" mask="url(#path-2-outside-1)"/>
<path d="M482.289 78.832C482.289 79.856 482.225 80.9227 482.097 82.032H457.329C457.5 84.2507 458.204 85.9573 459.441 87.152C460.721 88.304 462.278 88.88 464.113 88.88C466.844 88.88 468.742 87.728 469.809 85.424H481.457C480.86 87.7707 479.772 89.8827 478.193 91.76C476.657 93.6373 474.716 95.1093 472.369 96.176C470.022 97.2427 467.398 97.776 464.497 97.776C460.998 97.776 457.884 97.0293 455.153 95.536C452.422 94.0427 450.289 91.9093 448.753 89.136C447.217 86.3627 446.449 83.12 446.449 79.408C446.449 75.696 447.196 72.4533 448.689 69.68C450.225 66.9067 452.358 64.7733 455.089 63.28C457.82 61.7867 460.956 61.04 464.497 61.04C467.953 61.04 471.025 61.7653 473.713 63.216C476.401 64.6667 478.492 66.736 479.985 69.424C481.521 72.112 482.289 75.248 482.289 78.832ZM471.089 75.952C471.089 74.0747 470.449 72.5813 469.169 71.472C467.889 70.3627 466.289 69.808 464.369 69.808C462.534 69.808 460.977 70.3413 459.697 71.408C458.46 72.4747 457.692 73.9893 457.393 75.952H471.089Z" stroke="#EB5E28" stroke-width="4" mask="url(#path-2-outside-1)"/>
</svg>
